<svg xmlns="http://www.w3.org/2000/svg" xmlns:xlink="http://www.w3.org/1999/xlink" id="visual" viewBox="0 0 600 2500" width="600" height="2500" version="1.1"><rect x="0" y="0" width="600" height="2500" fill="#002233"/><path d="M0 2019L8.3 2011.3C16.7 2003.7 33.3 1988.3 50 1969.3C66.7 1950.3 83.3 1927.7 100 1947.2C116.7 1966.7 133.3 2028.3 150 2048.3C166.7 2068.3 183.3 2046.7 200 2025.7C216.7 2004.7 233.3 1984.3 250 1988.5C266.7 1992.7 283.3 2021.3 300 2017.5C316.7 2013.7 333.3 1977.3 350 1956.7C366.7 1936 383.3 1931 400 1959.8C416.7 1988.7 433.3 2051.3 450 2022.2C466.7 1993 483.3 1872 500 1792.7C516.7 1713.3 533.3 1675.7 550 1670.8C566.7 1666 583.3 1694 591.7 1708L600 1722L600 2501L591.7 2501C583.3 2501 566.7 2501 550 2501C533.3 2501 516.7 2501 500 2501C483.3 2501 466.7 2501 450 2501C433.3 2501 416.7 2501 400 2501C383.3 2501 366.7 2501 350 2501C333.3 2501 316.7 2501 300 2501C283.3 2501 266.7 2501 250 2501C233.3 2501 216.7 2501 200 2501C183.3 2501 166.7 2501 150 2501C133.3 2501 116.7 2501 100 2501C83.3 2501 66.7 2501 50 2501C33.3 2501 16.7 2501 8.3 2501L0 2501Z" fill="#0066FF" stroke-linecap="round" stroke-linejoin="miter"/></svg>