<svg xmlns="http://www.w3.org/2000/svg" xlink="http://www.w3.org/1999/xlink" id="visual" viewBox="0 0 900 600" version="1.1">
    <rect x="0" y="0" width="100vw" height="100vh" fill="#001122"/>
    <defs><linearGradient id="grad1_0" x1="33.3%" y1="100%" x2="100%" y2="0%"><stop offset="20%" stop-color="#001122" stop-opacity="1"/><stop offset="80%" stop-color="#001122" stop-opacity="1"/></linearGradient></defs><defs><linearGradient id="grad2_0" x1="0%" y1="100%" x2="66.7%" y2="0%"><stop offset="20%" stop-color="#001122" stop-opacity="1"/><stop offset="80%" stop-color="#001122" stop-opacity="1"/></linearGradient></defs><g transform="translate(900, 600)"><path d="M-351.5 0C-323.8 -26.3 -296.1 -52.6 -279.2 -74.8C-262.2 -97 -256.1 -114.9 -258.1 -149C-260.1 -183.1 -270.1 -233.2 -248.6 -248.6C-227 -264 -173.8 -244.7 -141 -244.2C-108.2 -243.7 -95.9 -262 -75.8 -283C-55.7 -304 -27.9 -327.8 0 -351.5L0 0Z" fill="#4FACF7"/></g><g transform="translate(0, 0)"><path d="M351.5 0C335.6 26.8 319.6 53.6 313 83.9C306.3 114.1 309 147.9 293.6 169.5C278.1 191.1 244.5 200.6 224.2 224.2C203.8 247.7 196.8 285.5 175.8 304.4C154.7 323.4 119.6 323.7 88 328.4C56.4 333.1 28.2 342.3 0 351.5L0 0Z" fill="#4FACF7"/></g></svg>